<?xml version="1.0" standalone="no"?>
<!DOCTYPE svg PUBLIC "-//W3C//DTD SVG 20010904//EN"
 "http://www.w3.org/TR/2001/REC-SVG-20010904/DTD/svg10.dtd">
<svg version="1.0" xmlns="http://www.w3.org/2000/svg"
 width="265.000000pt" height="265.000000pt" viewBox="0 0 265.000000 265.000000"
 preserveAspectRatio="xMidYMid meet">

<g transform="translate(0.000000,265.000000) scale(0.100000,-0.100000)"
fill="#000000" stroke="none">
<path d="M1099 2635 c-253 -40 -514 -140 -720 -276 -119 -79 -273 -231 -316
-314 -87 -167 -84 -325 11 -432 79 -90 -30 -83 1262 -83 1247 0 1194 -2 1256
57 127 122 37 416 -197 648 -224 221 -527 363 -865 405 -113 14 -325 11 -431
-5z m281 -212 c65 -38 88 -138 50 -213 -23 -46 -63 -70 -116 -70 -47 0 -109
58 -119 113 -12 60 3 107 45 149 30 30 45 38 75 38 20 0 50 -7 65 -17z m598
-141 c13 -8 32 -32 43 -53 35 -70 19 -152 -40 -202 -110 -92 -251 65 -182 202
39 75 112 96 179 53z m-1180 -6 c60 -31 91 -141 57 -205 -55 -108 -185 -105
-231 6 -30 70 -2 166 57 199 32 17 83 17 117 0z"/>
<path d="M238 1305 c-106 -29 -182 -100 -208 -195 -36 -129 47 -270 187 -316
56 -18 102 -19 1098 -19 996 0 1042 1 1098 19 123 40 205 157 194 274 -11 104
-91 200 -195 233 -20 7 -107 14 -193 16 l-155 5 -174 -211 c-95 -116 -177
-211 -181 -211 -4 0 -85 94 -181 209 l-173 210 -535 0 c-407 -1 -546 -4 -582
-14z"/>
<path d="M48 519 l-31 -30 6 -92 c12 -195 90 -327 222 -376 55 -21 64 -21
1064 -21 1102 0 1064 -2 1147 59 88 63 146 201 148 349 1 91 0 94 -27 118
l-28 24 -1235 0 -1236 0 -30 -31z"/>
</g>
</svg>
