<?xml version="1.0" standalone="no"?>
<!DOCTYPE svg PUBLIC "-//W3C//DTD SVG 20010904//EN"
 "http://www.w3.org/TR/2001/REC-SVG-20010904/DTD/svg10.dtd">
<svg version="1.0" xmlns="http://www.w3.org/2000/svg"
 width="265.000000pt" height="265.000000pt" viewBox="0 0 265.000000 265.000000"
 preserveAspectRatio="xMidYMid meet">

<g transform="translate(0.000000,265.000000) scale(0.100000,-0.100000)"
fill="#000000" stroke="none">
<path d="M1705 2635 c-125 -27 -247 -91 -341 -177 l-44 -40 -47 42 c-203 178
-509 229 -763 127 -95 -39 -166 -86 -244 -162 -114 -111 -182 -225 -232 -391
-25 -81 -28 -104 -28 -254 -1 -128 3 -180 17 -230 30 -111 77 -216 130 -293
29 -41 295 -340 591 -666 524 -574 541 -591 576 -591 35 0 52 17 566 581 291
320 548 604 572 633 57 68 125 202 158 312 26 82 28 102 28 259 0 157 -2 177
-28 259 -113 373 -408 608 -755 605 -53 0 -123 -6 -156 -14z"/>
</g>
</svg>
