<?xml version="1.0" standalone="no"?>
<!DOCTYPE svg PUBLIC "-//W3C//DTD SVG 20010904//EN"
 "http://www.w3.org/TR/2001/REC-SVG-20010904/DTD/svg10.dtd">
<svg version="1.0" xmlns="http://www.w3.org/2000/svg"
 width="265.000000pt" height="265.000000pt" viewBox="0 0 265.000000 265.000000"
 preserveAspectRatio="xMidYMid meet">

<g transform="translate(0.000000,265.000000) scale(0.100000,-0.100000)"
fill="#000000" stroke="none">
<path d="M1275 2555 c-261 -227 -657 -368 -1124 -401 l-94 -6 6 -122 c17 -347
148 -746 355 -1080 149 -240 426 -550 642 -716 126 -97 268 -190 290 -190 19
0 164 100 280 193 105 85 311 294 402 407 170 213 334 500 423 745 80 216 135
504 135 699 l0 93 -127 7 c-435 22 -775 133 -1062 346 -45 33 -82 60 -84 60
-1 -1 -20 -16 -42 -35z m272 -377 c183 -86 409 -152 626 -183 62 -9 127 -18
145 -21 l34 -5 -7 -52 c-59 -477 -289 -934 -665 -1321 -69 -70 -170 -165 -225
-209 l-100 -81 -6 190 c-4 104 -10 552 -14 997 l-8 807 69 -42 c38 -23 106
-59 151 -80z"/>
</g>
</svg>
