<?xml version="1.0" standalone="no"?>
<!DOCTYPE svg PUBLIC "-//W3C//DTD SVG 20010904//EN"
 "http://www.w3.org/TR/2001/REC-SVG-20010904/DTD/svg10.dtd">
<svg version="1.0" xmlns="http://www.w3.org/2000/svg"
 width="265.000000pt" height="265.000000pt" viewBox="0 0 265.000000 265.000000"
 preserveAspectRatio="xMidYMid meet">

<g transform="translate(0.000000,265.000000) scale(0.100000,-0.100000)"
fill="#000000" stroke="none">
<path d="M1264 2574 c-336 -445 -667 -987 -782 -1280 -68 -174 -85 -250 -85
-374 -1 -416 279 -779 688 -892 116 -32 364 -32 480 0 407 112 687 474 689
887 0 85 -5 128 -23 190 -71 252 -233 568 -498 975 -98 150 -330 479 -381 539
l-28 34 -60 -79z m-487 -1676 c11 -13 43 -70 70 -128 60 -127 105 -172 254
-250 73 -38 100 -57 105 -75 12 -47 -34 -91 -83 -79 -55 13 -200 95 -255 144
-98 87 -198 257 -198 337 0 36 4 45 28 57 38 21 55 20 79 -6z"/>
</g>
</svg>
